<?xml version="1.0" standalone="no"?>
<!DOCTYPE svg PUBLIC "-//W3C//DTD SVG 20010904//EN"
 "http://www.w3.org/TR/2001/REC-SVG-20010904/DTD/svg10.dtd">
<svg version="1.0" xmlns="http://www.w3.org/2000/svg"
 width="512.000000pt" height="512.000000pt" viewBox="0 0 512.000000 512.000000"
 preserveAspectRatio="xMidYMid meet">
<metadata>
Created by potrace 1.11, written by Peter Selinger 2001-2013
</metadata>
<g transform="translate(0.000000,512.000000) scale(0.100000,-0.100000)"
fill="#000000" stroke="none">
<path d="M420 5104 c-150 -32 -294 -143 -359 -275 -65 -132 -62 -38 -59 -1877
l3 -1667 23 -65 c48 -132 146 -246 262 -305 113 -57 65 -55 1171 -55 982 0
1019 -1 1028 -19 6 -10 76 -193 156 -407 80 -216 154 -397 165 -409 20 -20 32
-20 915 -23 987 -3 977 -3 1104 59 86 42 188 144 230 230 65 132 62 38 59
1877 l-3 1667 -23 65 c-47 129 -146 246 -256 302 -110 56 -32 53 -1175 58
l-1053 5 -62 180 c-35 99 -98 283 -141 409 -71 207 -81 230 -109 247 -30 18
-66 19 -921 18 -726 0 -902 -3 -955 -15z m2313 -1857 c313 -914 608 -1777 657
-1917 48 -140 86 -258 83 -262 -2 -4 -680 -7 -1506 -5 l-1502 2 -67 33 c-73
36 -123 86 -160 161 l-23 46 0 1680 0 1680 21 46 c26 56 82 120 132 151 75 46
79 47 962 47 l835 1 568 -1663z m1989 775 c73 -36 123 -86 160 -161 l23 -46 0
-1680 0 -1680 -22 -47 c-30 -66 -96 -133 -162 -165 l-56 -28 -772 -3 c-425 -1
-773 0 -773 4 0 3 107 128 238 277 395 452 372 424 372 458 0 17 -43 156 -95
308 -52 152 -95 281 -95 287 0 5 46 52 103 105 l103 96 184 -185 c232 -231
291 -282 331 -282 65 0 108 43 109 109 l0 44 -241 236 -242 236 86 118 c157
215 303 482 362 664 l27 81 135 4 135 3 29 33 c40 45 40 99 0 144 l-29 33
-396 3 -396 3 0 70 c0 67 -2 73 -34 105 -36 36 -77 44 -119 23 -44 -23 -57
-50 -57 -126 l0 -73 -272 0 c-150 0 -282 -3 -293 -5 -18 -5 -36 40 -201 527
-100 293 -180 537 -177 541 2 4 446 6 987 5 l981 -3 67 -33z m-606 -1314 c-58
-155 -190 -389 -310 -552 l-64 -87 -81 98 c-44 54 -99 132 -122 173 -53 93
-72 109 -127 110 -35 0 -49 -6 -73 -29 -65 -65 -24 -166 161 -394 l99 -122
-65 -64 c-38 -38 -69 -60 -74 -55 -7 7 -340 969 -340 981 0 2 229 3 510 3
l510 0 -24 -62z m-726 -1853 c0 -3 -106 -127 -237 -276 l-236 -270 -99 262
c-54 144 -98 268 -98 276 0 11 61 13 335 13 184 0 335 -2 335 -5z"/>
<path d="M1425 3808 c-21 -19 -78 -168 -296 -778 -149 -415 -271 -769 -272
-787 -4 -111 150 -150 197 -49 11 24 125 341 198 549 l10 27 232 0 231 0 99
-277 c54 -153 105 -291 113 -306 20 -40 74 -61 119 -47 43 15 74 54 74 94 0
18 -122 374 -271 792 -209 586 -276 764 -295 782 -18 16 -38 22 -69 22 -31 0
-51 -7 -70 -22z m145 -603 c40 -113 70 -208 68 -211 -3 -2 -71 -3 -150 -2
l-146 3 59 165 c74 207 90 250 93 250 2 0 36 -92 76 -205z"/>
</g>
</svg>
